<?xml version="1.0" standalone="no"?>
<!DOCTYPE svg PUBLIC "-//W3C//DTD SVG 20010904//EN"
 "http://www.w3.org/TR/2001/REC-SVG-20010904/DTD/svg10.dtd">
<svg version="1.0" xmlns="http://www.w3.org/2000/svg"
 width="700.000000pt" height="700.000000pt" viewBox="0 0 700.000000 700.000000"
 preserveAspectRatio="xMidYMid meet">
<metadata>
Created by potrace 1.11, written by Peter Selinger 2001-2013
</metadata>
<g transform="translate(0.000000,700.000000) scale(0.100000,-0.100000)"
fill="#000000" stroke="none">
<path d="M2170 6899 c-19 -12 -37 -21 -40 -20 -13 4 -215 -124 -287 -183 -188
-151 -303 -347 -306 -517 l-1 -57 -38 24 c-79 50 -191 39 -285 -29 l-42 -30
-45 37 c-25 20 -51 42 -58 49 -7 7 -53 46 -103 87 -49 41 -92 77 -95 80 -27
27 -130 110 -137 110 -5 0 -21 -24 -36 -52 -35 -70 -100 -189 -125 -230 -11
-18 -39 -69 -62 -113 -24 -44 -53 -98 -66 -120 -12 -22 -36 -65 -52 -95 l-30
-55 234 -116 c130 -64 231 -120 226 -123 -12 -7 -25 -77 -24 -123 1 -32 0 -33
-41 -34 -148 -2 -313 -83 -448 -218 -65 -66 -154 -180 -198 -256 -38 -65 -112
-207 -109 -209 51 -35 171 -80 278 -104 25 -6 56 -13 70 -17 14 -3 79 -8 145
-12 66 -3 122 -7 124 -9 3 -2 -5 -14 -16 -27 -20 -22 -116 -162 -181 -264
-159 -250 -279 -563 -317 -821 -11 -74 -13 -243 -3 -327 9 -88 37 -226 47
-237 4 -4 56 21 116 57 60 36 110 65 112 65 2 0 25 16 52 35 26 19 52 35 57
35 5 0 10 -21 10 -47 0 -56 13 -193 18 -202 2 -3 7 -24 10 -45 21 -129 96
-334 187 -505 43 -81 176 -293 209 -334 5 -7 47 -59 93 -117 111 -140 155
-188 332 -366 134 -134 286 -266 385 -334 19 -13 37 -27 40 -30 8 -9 164 -111
265 -172 540 -327 1233 -586 1950 -727 110 -22 218 -42 240 -45 22 -3 51 -8
65 -11 34 -7 238 -33 325 -41 39 -3 78 -8 88 -10 113 -21 759 -20 877 1 8 1
42 5 75 9 33 4 83 11 110 16 28 5 66 11 86 14 20 3 42 8 50 10 8 3 25 8 39 10
117 23 294 83 403 137 231 116 375 275 481 530 33 80 87 255 101 324 23 118
36 198 41 245 3 30 7 61 10 69 25 78 25 752 0 966 -3 22 -8 63 -10 90 -9 80
-16 136 -26 200 -5 33 -11 76 -14 95 -3 19 -8 53 -12 75 -3 22 -19 108 -36
190 -37 189 -32 165 -58 270 -12 50 -23 97 -25 105 -48 208 -172 583 -287 870
-58 145 -240 520 -298 615 -22 36 -40 67 -40 69 0 8 -126 202 -185 286 -152
216 -374 460 -579 638 -49 42 -94 82 -100 87 -20 18 -149 120 -172 135 -12 8
-61 42 -110 76 -316 216 -670 345 -968 353 -44 1 -83 4 -88 7 -4 3 10 33 30
67 21 34 53 88 71 119 l32 57 -38 10 c-21 5 -58 12 -83 16 -25 3 -62 8 -84 11
-63 10 -265 6 -356 -6 -346 -47 -703 -201 -1072 -461 l-113 -80 -7 128 c-5 81
-17 164 -32 223 -27 110 -84 250 -100 250 -6 0 -27 -10 -46 -21z"/>
</g>
</svg>
