<?xml version="1.0" encoding="utf-8"?>
<!-- Generator: Adobe Illustrator 16.0.0, SVG Export Plug-In . SVG Version: 6.00 Build 0)  -->
<!DOCTYPE svg PUBLIC "-//W3C//DTD SVG 1.1//EN" "http://www.w3.org/Graphics/SVG/1.1/DTD/svg11.dtd">
<svg version="1.1" id="Capa_1" xmlns="http://www.w3.org/2000/svg" xmlns:xlink="http://www.w3.org/1999/xlink" x="0px" y="0px"
	 width="2072.896px" height="315.455px" viewBox="13.614 118.626 2072.896 315.455"
	 enable-background="new 13.614 118.626 2072.896 315.455" xml:space="preserve">
<g>
	<g>
		<polygon fill="#659C35" points="86.252,168.993 77.314,182.657 33.39,160.803 47.035,135.957 		"/>
		<path fill="#88C057" d="M106.963,141.192c0.373-7.91-1.031-15.604-4.792-22.566c-28.821,13.186-25.226,29.86-25.226,29.86
			c-4.419-3.81-9.276-2.44-13.675,1.143l22.982,19.356l0,0l0,0l0,0l-8.938,13.672l0,0l0,0l-0.011-0.004l-26.904-13.387
			c-1.001,3.033-1.305,5.446-0.554,6.32c0,0-16.678-3.591-29.86,25.226c7.163,3.861,15.088,5.343,23.232,4.843
			c-14.496,19.275-24.203,40.606-17.725,62.711c51.392-27.721,44.086-58.573,44.086-58.573c28.324,23.528,56.064,11.1,60.16,9.122
			c1.978-4.096,14.407-31.836-9.122-60.16c0,0,23.417,14.742,51.142-36.654C148.647,116.428,126.273,126.631,106.963,141.192z"/>
		<g>
			<path fill="#E22F37" d="M167.165,130.704c-0.127-0.012-0.25-0.042-0.377-0.054c-25.496,41.069-46.176,28.109-46.176,28.109
				c23.529,28.324,11.1,56.064,9.122,60.159c-4.095,1.979-31.835,14.407-60.159-9.122c0,0,5.792,25.462-31.658,50.911
				c-0.004,0.135-0.004,0.273-0.012,0.411c0.108-0.076,0.235-0.149,0.339-0.223c0.053,18.729,9.71,38.231,31.789,60.31
				c49.355,49.347,164.871,65.668,194.323,36.215c29.453-29.452,13.133-144.968-36.222-194.323
				c-22.49-22.49-42.309-32.085-61.357-31.781C166.907,131.124,167.038,130.899,167.165,130.704z"/>
		</g>
		<path fill="#661C0E" d="M77.134,288.231c0,0-13.163,14.919-0.438,17.99s24.572-3.51,22.378-10.969
			C96.879,287.793,81.839,281.043,77.134,288.231z"/>
		<path fill="#661C0E" d="M121.335,259.314c0,0-11.283-6.176-16.21,1.082c-4.928,7.258-6.636,17.058,0.75,18.188
			s4.157-6.703,15.351-8.15S129.138,261.706,121.335,259.314z"/>
		<path fill="#661C0E" d="M62.076,254.744c0,0,5.704,10.97-0.877,15.797c-6.582,4.826-1.956,12.086,8.456,8.456
			C80.066,275.367,64.909,226.862,62.076,254.744z"/>
		<path fill="#661C0E" d="M84.893,238.949c0,0,8.776-9.654,14.48-3.949c5.704,5.704-1.316,22.378-11.408,21.061
			C77.872,254.744,84.893,238.949,84.893,238.949z"/>
		<path fill="#661C0E" d="M136.176,292.825c0,0,4.274,15.91-5.04,15.57c-9.313-0.34-16.575,2.533-14.918-14.919
			C117.874,276.025,132.539,277.156,136.176,292.825z"/>
		<path fill="#661C0E" d="M100.118,331.664c0,0,0.844-8.196,18.04-7.675c17.196,0.522,4.032,18.951-0.356,18.073
			C113.414,341.186,99.985,340.572,100.118,331.664z"/>
		<path fill="#661C0E" d="M149.718,324.188c0,0-11.872-5.68-10.047,10.047c1.825,15.727,6.34,2.092,9.504,15.945
			c3.164,13.854,19.399,3.418,12.223-8.712S149.718,324.188,149.718,324.188z"/>
		<path fill="#661C0E" d="M159.486,277.562c-12.506,1.097-11.047,13.524-5.524,19.049c5.524,5.523,10.35,20.003,13.86,13.859
			c3.511-6.143,12.846-18.745,2.036-22.536C159.047,284.143,171.991,276.465,159.486,277.562z"/>
		<path fill="#661C0E" d="M138.393,235.002c0,0,0.234-11.232,6.934-6.934s9.509,3.839,5.033,11.967s1.525,22.904-14.2,14.2
			C120.435,245.53,140.555,244.658,138.393,235.002z"/>
		<path fill="#661C0E" d="M155.218,193.435c0,0,1.197-11.967,13.044-6.263c11.847,5.704-2.285,10.001,1.271,20.577
			c3.556,10.577-12.898,9.919-16.518,4.544C149.394,206.917,154.898,205.4,155.218,193.435z"/>
		<path fill="#661C0E" d="M149.531,161.421c0,0-11.107,1.18-6.28,12.148c4.827,10.97,10.603-6.07,20.22-6.984
			c9.617-0.913,12.2-11.494,4.546-15.638C160.364,146.804,156.569,156.763,149.531,161.421z"/>
		<path fill="#661C0E" d="M199.408,149.752c0,0-10.044-8.173-13.794,10.016c-3.75,18.188,8.433,9.696,11.653,16.129
			c3.221,6.433,15.659,2.408,11.316-7.2C204.242,159.09,203.687,151.54,199.408,149.752z"/>
		<path fill="#661C0E" d="M196.344,192.438c0,0-11.014,0.559-8.14,13.442c2.874,12.885,12.693-1.868,22.264-5.461
			C220.038,196.825,223.732,181.109,196.344,192.438z"/>
		<path fill="#661C0E" d="M176.804,240.031c-4.556,4.715-1.083,8.132-8.542,12.958c-7.459,4.827-2.394,10.339,2.533,10.874
			c4.926,0.534,16.678-24.134,23.856-21.343C201.829,245.311,202.677,213.251,176.804,240.031z"/>
		<path fill="#661C0E" d="M218.2,232.723c0,0-13.52-10.448-3.428-17.907c10.092-7.459,32.349-10.93,29.083-3.855
			C238.398,222.782,225.858,240.587,218.2,232.723z"/>
		<path fill="#661C0E" d="M209.556,256.549c0,0,16.844,11.141,6.001,18.423c-2.852,1.915-5.831-7.282-17.897-3.554
			C185.593,275.148,197.978,251.99,209.556,256.549z"/>
		<path fill="#661C0E" d="M246.86,254.58c0,0-5.428-5.916,0.913-13.493c6.341-7.577-9.781-9.629-10.341,0.201
			c-0.56,9.831-13.924,9.911-12.207,18.491C226.944,268.36,248.258,264.328,246.86,254.58z"/>
		<path fill="#661C0E" d="M192.88,288.483c-5.785,4.834-10.358,7.727-7.506,14.527c2.853,6.801,13.649,10.923,15.381,4.364
			c1.731-6.559,13.535-14.193,6.426-19.7C200.074,282.169,195.799,286.046,192.88,288.483z"/>
		<path fill="#661C0E" d="M174.182,330.869c-2.276,7.519-3.76,2.452-0.562,12.855c3.199,10.404,10.438,15.012,13.729,2.945
			s0.701-15.096,6.274-19.614C199.196,322.536,178.565,316.386,174.182,330.869z"/>
		<path fill="#661C0E" d="M230.244,289.658c0,0,13.573-16.131,15.615-8.08c2.042,8.05-12.438,14.192-12.658,19.238
			C232.982,305.862,213.465,306.8,230.244,289.658z"/>
		<path fill="#661C0E" d="M254.25,300.392c0,0,16.907-12.519,13.835,9.859c-3.072,22.378-5.266,19.306-11.408,16.234
			C250.534,323.414,245.268,303.875,254.25,300.392z"/>
		<path fill="#661C0E" d="M224.034,324.025c0,0-17.42-6.823-20.581,9.556c-3.16,16.38,4.924,2.772,9.768,7.053
			c4.843,4.28,10.696,5.448,12.486-1.607C227.498,331.971,234.636,325.207,224.034,324.025z"/>
		<path fill="#661C0E" d="M221.901,354.267c0,0,13.769-0.214,16.828-10.329s16.264,2.088,12.964,7.911
			c-3.299,5.824-18.835,12.889-25.971,11.244C218.586,361.448,214.094,355.833,221.901,354.267z"/>
		<path fill="#661C0E" d="M259.748,263.74c0,0-11.68,1.045-5.072,14.673s4.99,9.98,15.342,9.281
			c10.353-0.699-4.347-10.133-0.178-13.862C274.009,270.103,266.11,262.643,259.748,263.74z"/>
	</g>
	<g>
		<path fill="#E22F37" d="M469.361,288.917c0,20.041-11.965,38.287-35.895,48.158c-6.879,29.911-29.612,43.671-34.997,43.671
			c-3.889,0-6.88-2.393-6.88-5.982c0-2.692,1.496-5.085,4.188-6.281c9.272-3.889,18.246-13.461,23.032-26.622
			c-4.487,0.897-9.572,1.795-14.956,2.394c-5.384,0.598-11.067,0.897-17.349,0.897c-38.287,0-70.292-18.546-70.292-46.962
			c0-22.434,21.835-40.082,49.953-40.082c38.885,0,67.9,27.22,68.797,64.311c13.46-6.88,21.237-19.742,21.237-33.501
			c0-28.416-22.434-39.483-55.038-50.551c-26.92-9.273-53.542-18.546-53.542-47.56c0-22.434,20.34-44.868,59.824-44.868
			c7.179,0,13.759,1.196,19.442,2.692c8.375-6.879,19.443-11.067,32.006-11.067c3.889,0,6.879,2.692,6.879,6.581
			c0,3.291-3.29,5.384-7.179,5.384c-6.581,0-12.862,1.795-18.545,5.384c2.094,1.496,4.188,2.991,5.684,4.487
			c9.572,9.272,11.067,18.545,11.067,25.724c0,10.768-8.076,21.237-20.041,21.237c-13.161,0-24.528-11.067-24.528-27.22
			c0-6.88,2.094-14.657,5.683-20.041c-3.29-0.598-7.478-1.196-10.768-1.196c-30.809,0-46.064,17.049-46.064,32.903
			c0,18.246,16.75,25.724,44.27,35.595C434.065,236.571,469.361,249.134,469.361,288.917z M329.374,298.488
			c0,19.742,25.126,34.698,57.131,34.698c13.161,0,25.425-1.496,35.595-4.786c1.794-32.006-18.845-57.729-55.935-57.729
			C346.424,270.671,329.374,282.336,329.374,298.488z M430.177,162.689c-2.991,4.487-4.786,9.871-4.786,16.452
			c0,8.375,5.384,14.956,11.367,14.956c4.487,0,6.88-4.188,6.88-8.973C443.637,180.337,442.74,170.466,430.177,162.689z"/>
		<path fill="#E22F37" d="M523.2,342.459c-0.299,0-1.795-0.299-2.094-0.299c-14.956-2.394-22.135-14.657-22.135-37.689
			c0-14.357,1.795-31.108,7.478-53.841c-8.674,0-11.964,1.495-16.152,1.495c-2.094,0-4.188-1.794-4.188-5.085
			c0-8.375,12.563-8.674,23.331-8.974c2.394-9.871,5.982-23.63,9.272-35.595c0.897-2.692,3.291-4.487,5.982-4.786
			c3.889,0,6.88,2.393,6.88,5.982c0,1.197-0.299,2.692-0.598,3.291c-2.991,8.974-6.88,24.827-8.376,31.408
			c4.188,0,10.17,0.299,18.246,0.598c3.291,0.599,6.581,2.991,6.581,6.281c0,3.59-2.393,5.982-5.684,5.982
			c-5.683,0-15.853-0.598-21.536-0.896c-5.384,19.144-8.076,37.987-8.076,53.242c0,23.631,8.674,25.126,11.665,25.725
			c3.291,0,5.982,2.991,5.982,6.281C529.78,339.169,526.789,342.16,523.2,342.459z"/>
		<path fill="#E22F37" d="M566.868,336.178c-0.598,3.589-3.29,5.683-6.58,5.683c-3.59,0-5.982-2.991-5.982-6.58
			c0-2.094,8.375-51.149,8.375-61.021c0-13.161-2.691-18.246-6.58-22.135c-1.496-1.196-1.795-2.991-1.795-4.785
			c0-3.59,2.991-6.581,6.281-6.581c5.684,0,14.059,10.17,13.46,25.126c6.581-19.742,22.733-28.716,37.689-28.716
			c3.889,0,7.179,2.692,7.179,6.581c0,3.59-2.692,5.684-6.281,5.982c-31.108,1.795-37.091,38.287-43.971,76.574L566.868,336.178z"/>
		<path fill="#E22F37" d="M702.37,267.68c0,11.366-1.794,24.527-3.888,35.894c-1.197,7.777-2.991,17.947-2.991,23.93
			c0,1.795,0.299,2.991,0.598,3.889c0.599,1.196,1.196,2.094,1.196,3.59c0,3.29-3.29,6.281-6.879,6.281
			c-6.581,0-8.376-8.376-8.376-14.357c0-6.282,1.795-14.657,3.291-25.426c1.794-11.067,3.888-22.732,3.888-33.202
			c0-14.357-7.776-19.741-15.554-19.741c-22.733,0-39.783,34.697-39.783,61.917c0,11.067,5.085,18.845,12.862,18.845
			c8.076,0,14.059-7.179,17.05-15.255c0.897-2.394,3.29-3.889,5.684-3.889c3.889,0,6.281,2.991,6.281,6.58
			c0,5.085-9.571,25.126-31.108,25.126c-11.965,0-24.229-8.974-24.229-31.407c0-31.108,21.536-74.48,54.439-74.48
			C691.901,235.973,702.37,247.04,702.37,267.68z"/>
		<path fill="#E22F37" d="M851.329,236.87c8.674,0,8.674,14.956,8.674,18.546c0,27.817-20.041,84.949-49.653,84.949
			c-11.366,0-24.229-9.272-23.93-33.801c-7.478,20.041-21.237,34.1-36.492,34.1c-18.845,0-24.229-22.135-24.229-40.082
			c0-19.144,3.889-40.979,7.179-53.841c0.897-3.29,3.59-5.384,6.581-5.384c3.589,0,6.58,2.991,6.58,6.879
			c0,0.599,0,0.897-0.299,1.496c-2.991,12.264-6.581,32.903-6.581,50.85c0,17.05,4.188,27.52,11.666,27.52
			c16.75,0,36.492-36.792,39.782-81.959c0.3-3.589,2.692-6.281,5.684-6.281c3.889,0,6.88,2.991,6.88,6.88
			c0,0.299-0.3,4.786-0.897,10.17c-1.496,14.657-3.59,32.006-3.59,43.671c0,13.161,2.991,26.921,12.264,26.921
			c17.05,0,35.895-44.27,35.895-72.087c0-3.59-0.598-6.88-1.795-8.974c-0.299-0.897-0.598-1.795-0.598-2.692
			c0-2.393,1.795-5.085,4.188-5.982C849.534,237.169,850.432,236.87,851.329,236.87z"/>
		<path fill="#E22F37" d="M880.341,296.096c0-21.836,4.786-46.962,11.666-69.694c-4.188,0.598-9.871,0.897-14.358,0.897
			c-5.683,0-7.179-4.188-7.179-6.879c0-0.897,0.599-5.684,7.179-5.684c7.18,0,12.862-0.897,19.144-2.393
			c6.581-19.144,25.426-66.404,53.243-66.404c11.965,0,19.144,7.179,19.144,20.34s-9.571,25.126-15.853,31.408
			c-12.265,12.563-29.314,20.34-46.064,24.827c-7.777,21.536-13.76,51.149-13.76,73.583c0,21.536,5.982,35.595,20.34,35.595
			c14.657,0,33.502-27.817,33.502-56.832c0-14.357-5.085-24.827-15.555-24.827c-6.281,0-10.17,1.795-13.759,5.684
			c-1.496,1.495-3.291,2.094-5.085,2.094c-3.59,0-6.581-2.991-6.581-6.581c0-4.188,7.777-14.357,26.023-14.357
			c17.947,0,28.117,15.555,28.117,37.988c0,32.903-22.733,67.601-46.962,67.601C899.484,342.459,880.341,336.775,880.341,296.096z
			 M944.651,188.413c5.684-5.683,11.067-15.554,11.067-21.537c0-5.085-2.393-8.674-6.281-8.674
			c-11.666,0-25.426,20.34-37.988,50.252C923.713,204.565,936.276,197.087,944.651,188.413z"/>
		<path fill="#E22F37" d="M1037.974,260.8c0-5.982-4.188-10.17-11.965-10.17c-14.956,0-36.193,19.144-36.193,51.149
			c0,10.17,3.29,28.416,24.826,28.416c7.777,0,15.854-3.59,20.938-9.871c1.196-1.495,2.692-2.393,4.786-2.393
			c3.589,0,5.982,2.991,5.982,6.879c0,5.684-14.357,17.648-32.604,17.648c-22.732,0-37.39-15.255-37.39-40.68
			c0-37.689,26.323-64.012,49.953-64.012c17.947,0,25.126,11.067,25.126,23.032c0,23.63-24.827,35.296-42.475,35.296
			c-3.59,0-6.581-2.393-6.581-6.281c0-3.291,2.692-6.282,6.581-6.581C1023.018,282.935,1037.974,274.26,1037.974,260.8z"/>
		<path fill="#E22F37" d="M1079.547,336.178c-0.598,3.589-3.29,5.683-6.58,5.683c-3.59,0-5.982-2.991-5.982-6.58
			c0-2.094,8.375-51.149,8.375-61.021c0-13.161-2.691-18.246-6.58-22.135c-1.496-1.196-1.795-2.991-1.795-4.785
			c0-3.59,2.991-6.581,6.281-6.581c5.684,0,14.059,10.17,13.46,25.126c6.581-19.742,22.733-28.716,37.689-28.716
			c3.889,0,7.179,2.692,7.179,6.581c0,3.59-2.692,5.684-6.281,5.982c-31.108,1.795-37.091,38.287-43.971,76.574L1079.547,336.178z"
			/>
		<path fill="#E22F37" d="M1153.427,336.178c-0.598,3.589-3.29,5.683-6.58,5.683c-3.59,0-5.982-2.991-5.982-6.58
			c0-2.094,8.375-51.149,8.375-61.021c0-13.161-2.691-18.246-6.58-22.135c-1.496-1.196-1.795-2.991-1.795-4.785
			c0-3.59,2.991-6.581,6.281-6.581c5.684,0,14.059,10.17,13.46,25.126c6.581-19.742,22.733-28.716,37.689-28.716
			c3.889,0,7.179,2.692,7.179,6.581c0,3.59-2.692,5.684-6.281,5.982c-31.108,1.795-37.091,38.287-43.971,76.574L1153.427,336.178z"
			/>
		<path fill="#E22F37" d="M1231.796,246.442c-2.394,12.861-6.581,34.1-6.581,53.243c0,8.674,1.196,27.817,11.367,27.817
			c18.246,0,40.68-46.662,40.381-82.855c0-3.59,3.29-6.281,6.879-6.281c3.59,0,5.982,2.991,5.982,6.58
			c0,13.461-2.094,42.774-2.991,56.833c-0.897,12.563-2.991,37.09-10.768,62.814c9.87,5.684,17.349,15.554,17.349,26.921
			c0,3.589-2.991,6.58-6.581,6.58c-3.589,0-6.281-2.991-6.281-6.58c0-8.376-6.58-12.862-9.272-14.059
			c-13.161,33.8-42.475,55.337-69.097,55.337c-14.656,0-27.817-7.18-27.817-25.426c0-30.809,38.586-50.251,69.993-50.251
			c6.88,0,13.76,0.896,19.144,2.691c4.786-14.956,9.272-39.185,11.067-57.431c-7.478,20.938-23.331,38.287-37.987,38.287
			c-18.546,0-24.827-20.041-24.827-40.979c0-20.64,4.486-43.373,6.58-54.44c0.599-2.094,1.496-6.879,7.18-6.879
			c3.589,0,6.58,2.991,6.58,6.879L1231.796,246.442z M1259.913,371.174c-4.188-1.196-10.47-1.794-15.555-1.794
			c-24.826,0-56.533,15.853-56.533,37.091c0,9.571,8.076,14.058,16.152,14.058C1224.617,420.528,1248.247,401.086,1259.913,371.174z
			"/>
		<path fill="#E22F37" d="M1441.475,171.962c0-2.692,0.299-5.384,0.599-7.777c-41.877,7.777-67.601,47.261-67.601,89.437
			c0,42.773,25.126,77.172,70.592,77.172c26.621,0,47.261-9.87,58.926-26.92c1.196-1.795,3.59-2.991,5.684-2.991
			c3.29,0,6.281,2.991,6.281,6.88c0,4.785-20.639,35.894-70.891,35.894c-52.944,0-83.753-38.885-83.753-90.034
			c0-52.346,34.099-97.513,84.351-102.598c7.777-18.844,24.827-29.313,43.372-29.313c6.282,0,17.05,0.598,17.05,8.076
			c0,3.889-2.991,5.982-6.58,5.982c-1.496,0-8.675-1.197-10.47-1.197c-10.768,0-21.536,4.188-28.117,16.152
			c38.287,2.094,59.824,27.22,59.824,52.944c0,16.751-10.769,31.108-31.108,31.108c-10.469,0-21.237-5.085-29.912-13.759
			C1447.756,209.352,1441.475,191.404,1441.475,171.962z M1506.981,203.668c0-20.34-18.545-39.783-51.149-40.68
			c-0.598,2.692-0.896,5.683-0.896,8.974c0,32.604,20.639,49.953,34.697,49.953C1505.486,221.915,1506.981,209.052,1506.981,203.668
			z"/>
		<path fill="#E22F37" d="M1546.763,335.28c-1.495-8.974-2.094-14.657-2.094-24.528c0-32.902,6.88-71.189,9.871-83.752
			c-2.094,0.299-5.384,0.299-8.076,0.299c-5.384,0-11.666,0.299-11.666-6.581c0-3.589,2.991-6.581,6.282-5.982h5.683
			c3.889,0,8.076-0.299,11.366-0.897c9.273-29.613,27.818-63.413,50.851-63.413c12.862,0,20.34,7.777,20.34,20.041
			c0,24.229-30.809,46.662-60.721,54.14c-2.692,10.769-7.479,32.006-11.067,60.721c8.974-29.911,27.22-48.158,43.372-48.158
			c23.63,0,23.93,31.408,23.93,44.27c0,24.827-6.282,49.354-7.179,52.047c-0.897,2.991-3.291,5.085-6.282,5.085
			c-3.889,0-6.879-3.29-6.879-6.58c0-0.599,0.299-1.197,0.299-1.795c2.393-9.272,6.58-29.613,6.58-48.757
			c0-22.732-3.889-30.51-11.366-30.51c-19.442,0-44.867,49.953-40.68,83.155c0.598,3.589-2.394,6.58-6.282,6.58
			C1549.754,340.664,1547.361,338.271,1546.763,335.28z M1572.786,210.548c23.331-8.076,43.372-25.425,43.372-40.082
			c0-4.487-2.094-7.777-7.478-7.777C1597.912,162.689,1582.059,182.431,1572.786,210.548z"/>
		<path fill="#E22F37" d="M1709.48,260.8c0-5.982-4.188-10.17-11.965-10.17c-14.956,0-36.193,19.144-36.193,51.149
			c0,10.17,3.29,28.416,24.826,28.416c7.777,0,15.854-3.59,20.938-9.871c1.196-1.495,2.692-2.393,4.786-2.393
			c3.589,0,5.982,2.991,5.982,6.879c0,5.684-14.357,17.648-32.604,17.648c-22.733,0-37.391-15.255-37.391-40.68
			c0-37.689,26.323-64.012,49.953-64.012c17.947,0,25.126,11.067,25.126,23.032c0,23.63-24.827,35.296-42.475,35.296
			c-3.59,0-6.581-2.393-6.581-6.281c0-3.291,2.692-6.282,6.581-6.581C1694.524,282.935,1709.48,274.26,1709.48,260.8z"/>
		<path fill="#E22F37" d="M1798.614,260.8c0-5.982-4.188-10.17-11.965-10.17c-14.956,0-36.193,19.144-36.193,51.149
			c0,10.17,3.29,28.416,24.826,28.416c7.777,0,15.854-3.59,20.938-9.871c1.196-1.495,2.692-2.393,4.786-2.393
			c3.589,0,5.982,2.991,5.982,6.879c0,5.684-14.357,17.648-32.604,17.648c-22.732,0-37.39-15.255-37.39-40.68
			c0-37.689,26.323-64.012,49.953-64.012c17.947,0,25.126,11.067,25.126,23.032c0,23.63-24.827,35.296-42.475,35.296
			c-3.59,0-6.581-2.393-6.581-6.281c0-3.291,2.692-6.282,6.581-6.581C1783.658,282.935,1798.614,274.26,1798.614,260.8z"/>
		<path fill="#E22F37" d="M1859.331,342.459c-0.299,0-1.794-0.299-2.094-0.299c-14.956-2.394-22.135-14.657-22.135-37.689
			c0-14.357,1.795-31.108,7.479-53.841c-8.675,0-11.965,1.495-16.152,1.495c-2.094,0-4.188-1.794-4.188-5.085
			c0-8.375,12.563-8.674,23.331-8.974c2.393-9.871,5.982-23.63,9.272-35.595c0.897-2.692,3.29-4.487,5.982-4.786
			c3.889,0,6.88,2.393,6.88,5.982c0,1.197-0.3,2.692-0.599,3.291c-2.991,8.974-6.88,24.827-8.375,31.408
			c4.188,0,10.17,0.299,18.246,0.598c3.29,0.599,6.58,2.991,6.58,6.281c0,3.59-2.393,5.982-5.683,5.982
			c-5.684,0-15.854-0.598-21.537-0.896c-5.384,19.144-8.076,37.987-8.076,53.242c0,23.631,8.675,25.126,11.666,25.725
			c3.29,0,5.982,2.991,5.982,6.281C1865.912,339.169,1862.921,342.16,1859.331,342.459z"/>
		<path fill="#E22F37" d="M1970.6,267.68c0,11.366-1.794,24.527-3.888,35.894c-1.197,7.777-2.991,17.947-2.991,23.93
			c0,1.795,0.299,2.991,0.598,3.889c0.599,1.196,1.196,2.094,1.196,3.59c0,3.29-3.29,6.281-6.879,6.281
			c-6.581,0-8.376-8.376-8.376-14.357c0-6.282,1.795-14.657,3.291-25.426c1.794-11.067,3.888-22.732,3.888-33.202
			c0-14.357-7.776-19.741-15.554-19.741c-22.733,0-39.783,34.697-39.783,61.917c0,11.067,5.086,18.845,12.862,18.845
			c8.076,0,14.059-7.179,17.05-15.255c0.897-2.394,3.29-3.889,5.684-3.889c3.889,0,6.281,2.991,6.281,6.58
			c0,5.085-9.571,25.126-31.108,25.126c-11.965,0-24.229-8.974-24.229-31.407c0-31.108,21.536-74.48,54.439-74.48
			C1960.131,235.973,1970.6,247.04,1970.6,267.68z"/>
		<path fill="#E22F37" d="M1999.313,335.28c-1.495-8.974-2.094-14.657-2.094-24.528c0-32.902,6.88-71.189,9.871-83.752
			c-2.094,0.299-5.384,0.299-8.076,0.299c-5.384,0-11.666,0.299-11.666-6.581c0-3.589,2.991-6.581,6.282-5.982h5.683
			c3.889,0,8.076-0.299,11.367-0.897c9.272-29.613,27.817-63.413,50.85-63.413c12.862,0,20.34,7.777,20.34,20.041
			c0,24.229-30.809,46.662-60.721,54.14c-2.692,10.769-7.479,32.006-11.067,60.721c8.974-29.911,27.22-48.158,43.372-48.158
			c23.63,0,23.93,31.408,23.93,44.27c0,24.827-6.282,49.354-7.179,52.047c-0.897,2.991-3.291,5.085-6.282,5.085
			c-3.889,0-6.879-3.29-6.879-6.58c0-0.599,0.299-1.197,0.299-1.795c2.393-9.272,6.58-29.613,6.58-48.757
			c0-22.732-3.889-30.51-11.366-30.51c-19.442,0-44.867,49.953-40.68,83.155c0.598,3.589-2.394,6.58-6.282,6.58
			C2002.304,340.664,1999.911,338.271,1999.313,335.28z M2025.336,210.548c23.331-8.076,43.372-25.425,43.372-40.082
			c0-4.487-2.094-7.777-7.478-7.777C2050.462,162.689,2034.608,182.431,2025.336,210.548z"/>
	</g>
</g>
</svg>
