<?xml version="1.0" encoding="utf-8"?>
<!-- Generator: Adobe Illustrator 16.0.0, SVG Export Plug-In . SVG Version: 6.00 Build 0)  -->
<!DOCTYPE svg PUBLIC "-//W3C//DTD SVG 1.1//EN" "http://www.w3.org/Graphics/SVG/1.1/DTD/svg11.dtd">
<svg version="1.1" id="Layer_1" xmlns="http://www.w3.org/2000/svg" xmlns:xlink="http://www.w3.org/1999/xlink" x="0px" y="0px"
	 width="500px" height="500px" viewBox="0 0 500 500" enable-background="new 0 0 500 500" xml:space="preserve">
<g>
	<polygon fill="#659C35" points="127.911,102.601 110.659,128.976 25.876,86.792 52.213,38.835 	"/>
	<path fill="#88C057" d="M167.887,48.939c0.721-15.267-1.99-30.119-9.249-43.557c-55.631,25.452-48.691,57.636-48.691,57.636
		c-8.53-7.354-17.905-4.711-26.396,2.206l44.36,37.362l0,0l0,0l0,0l-17.251,26.39l0,0l0,0l-0.022-0.008l-51.931-25.839
		c-1.932,5.854-2.519,10.512-1.069,12.2c0,0-32.192-6.931-57.637,48.69c13.825,7.453,29.123,10.313,44.843,9.348
		c-27.979,37.205-46.716,78.378-34.212,121.044c99.196-53.506,85.095-113.058,85.095-113.058
		c54.671,45.414,108.215,21.425,116.12,17.607c3.818-7.905,27.809-61.45-17.607-116.121c0,0,45.2,28.455,98.713-70.75
		C248.347,1.139,205.159,20.834,167.887,48.939z"/>
	<g>
		<path fill="#E22F37" d="M284.088,28.695c-0.245-0.023-0.482-0.081-0.728-0.105c-49.212,79.272-89.129,54.257-89.129,54.257
			c45.415,54.671,21.425,108.215,17.607,116.12c-7.905,3.818-61.448,27.809-116.12-17.607c0,0,11.18,49.146-61.106,98.269
			c-0.008,0.26-0.008,0.527-0.023,0.793c0.208-0.146,0.455-0.288,0.655-0.43c0.103,36.152,18.743,73.795,61.358,116.41
			c95.265,95.249,318.233,126.752,375.082,69.901c56.849-56.849,25.351-279.817-69.915-375.083
			c-43.411-43.41-81.664-61.931-118.433-61.344C283.591,29.505,283.843,29.073,284.088,28.695z"/>
	</g>
	<path fill="#661C0E" d="M110.311,332.756c0,0-25.407,28.796-0.846,34.725c24.561,5.928,47.429-6.775,43.194-21.172
		C148.424,331.909,119.394,318.88,110.311,332.756z"/>
	<path fill="#661C0E" d="M195.628,276.939c0,0-21.779-11.92-31.289,2.089c-9.512,14.009-12.809,32.925,1.448,35.105
		s8.024-12.938,29.63-15.731C217.022,295.608,210.689,281.556,195.628,276.939z"/>
	<path fill="#661C0E" d="M81.247,268.118c0,0,11.01,21.174-1.694,30.491c-12.705,9.315-3.774,23.328,16.322,16.322
		C115.97,307.925,86.714,214.3,81.247,268.118z"/>
	<path fill="#661C0E" d="M125.287,237.63c0,0,16.939-18.635,27.95-7.623c11.01,11.01-2.54,43.195-22.021,40.652
		C111.736,268.118,125.287,237.63,125.287,237.63z"/>
	<path fill="#661C0E" d="M224.273,341.622c0,0,8.251,30.71-9.728,30.054c-17.977-0.655-31.992,4.89-28.795-28.796
		C188.946,309.195,217.253,311.378,224.273,341.622z"/>
	<path fill="#661C0E" d="M154.674,416.589c0,0,1.629-15.82,34.82-14.813c33.191,1.008,7.783,36.579-0.687,34.885
		C180.338,434.968,154.419,433.783,154.674,416.589z"/>
	<path fill="#661C0E" d="M250.412,402.158c0,0-22.914-10.963-19.393,19.393c3.523,30.354,12.237,4.037,18.345,30.777
		c6.106,26.74,37.446,6.598,23.592-16.816C259.104,412.099,250.412,402.158,250.412,402.158z"/>
	<path fill="#661C0E" d="M269.269,312.16c-24.14,2.117-21.323,26.105-10.663,36.769c10.663,10.661,19.979,38.609,26.753,26.751
		c6.776-11.856,24.795-36.182,3.929-43.499S293.403,310.043,269.269,312.16z"/>
	<path fill="#661C0E" d="M228.553,230.011c0,0,0.451-21.681,13.384-13.383c12.933,8.297,18.355,7.409,9.715,23.098
		c-8.64,15.689,2.944,44.21-27.409,27.41C193.89,250.333,232.726,248.65,228.553,230.011z"/>
	<path fill="#661C0E" d="M261.028,149.778c0,0,2.311-23.098,25.179-12.088c22.864,11.01-4.411,19.304,2.45,39.718
		c6.865,20.416-24.895,19.146-31.882,8.771C249.787,175.801,260.411,172.875,261.028,149.778z"/>
	<path fill="#661C0E" d="M250.053,87.985c0,0-21.438,2.277-12.122,23.449c9.316,21.174,20.466-11.717,39.028-13.481
		c18.563-1.762,23.547-22.186,8.776-30.184C270.961,59.771,263.638,78.994,250.053,87.985z"/>
	<path fill="#661C0E" d="M346.326,65.462c0,0-19.389-15.776-26.627,19.333c-7.238,35.107,16.278,18.716,22.495,31.132
		c6.217,12.417,30.223,4.648,21.843-13.898C355.656,83.486,354.582,68.912,346.326,65.462z"/>
	<path fill="#661C0E" d="M340.411,147.853c0,0-21.259,1.078-15.713,25.947c5.549,24.87,24.5-3.606,42.975-10.541
		C386.144,156.323,393.276,125.988,340.411,147.853z"/>
	<path fill="#661C0E" d="M302.692,239.719c-8.793,9.101-2.088,15.696-16.485,25.011c-14.399,9.317-4.622,19.956,4.888,20.989
		c9.51,1.031,32.191-46.583,46.048-41.196C350.997,249.909,352.633,188.028,302.692,239.719z"/>
	<path fill="#661C0E" d="M382.597,225.612c0,0-26.096-20.167-6.616-34.564c19.48-14.397,62.44-21.097,56.138-7.442
		C421.585,206.424,397.378,240.792,382.597,225.612z"/>
	<path fill="#661C0E" d="M365.912,271.602c0,0,32.514,21.504,11.583,35.56c-5.504,3.696-11.253-14.056-34.543-6.859
		C319.659,307.503,343.563,262.803,365.912,271.602z"/>
	<path fill="#661C0E" d="M437.916,267.802c0,0-10.477-11.419,1.763-26.045c12.239-14.625-18.878-18.586-19.96,0.389
		c-1.082,18.976-26.876,19.13-23.563,35.692C399.475,294.4,440.615,286.617,437.916,267.802z"/>
	<path fill="#661C0E" d="M333.725,333.242c-11.164,9.33-19.993,14.913-14.489,28.04c5.508,13.127,26.348,21.083,29.689,8.424
		c3.343-12.659,26.124-27.396,12.405-38.025C347.609,321.054,339.359,328.537,333.725,333.242z"/>
	<path fill="#661C0E" d="M297.634,415.055c-4.395,14.513-7.259,4.733-1.086,24.813c6.175,20.083,20.146,28.976,26.499,5.686
		c6.353-23.291,1.354-29.138,12.112-37.859C345.915,398.971,306.093,387.099,297.634,415.055z"/>
	<path fill="#661C0E" d="M405.846,335.51c0,0,26.197-31.137,30.141-15.597c3.939,15.538-24.009,27.395-24.434,37.134
		C411.131,366.786,373.458,368.596,405.846,335.51z"/>
	<path fill="#661C0E" d="M452.18,356.227c0,0,32.634-24.163,26.704,19.031c-5.928,43.193-10.164,37.264-22.02,31.335
		C445.008,400.665,434.844,362.95,452.18,356.227z"/>
	<path fill="#661C0E" d="M393.857,401.845c0,0-33.624-13.17-39.724,18.444c-6.101,31.616,9.504,5.352,18.853,13.613
		c9.346,8.262,20.645,10.517,24.102-3.103C400.543,417.181,414.322,404.126,393.857,401.845z"/>
	<path fill="#661C0E" d="M389.74,460.217c0,0,26.578-0.413,32.481-19.938c5.906-19.524,31.393,4.03,25.025,15.27
		c-6.368,11.242-36.357,24.878-50.129,21.704C383.343,474.078,374.672,463.24,389.74,460.217z"/>
	<path fill="#661C0E" d="M462.794,285.482c0,0-22.544,2.017-9.791,28.321c12.754,26.305,9.633,19.265,29.613,17.915
		c19.984-1.35-8.39-19.559-0.343-26.757C490.318,297.763,475.072,283.363,462.794,285.482z"/>
</g>
</svg>
