<?xml version="1.0" encoding="utf-8"?>
<!-- Generator: Adobe Illustrator 16.0.0, SVG Export Plug-In . SVG Version: 6.00 Build 0)  -->
<!DOCTYPE svg PUBLIC "-//W3C//DTD SVG 1.1//EN" "http://www.w3.org/Graphics/SVG/1.1/DTD/svg11.dtd">
<svg version="1.1" id="Capa_1" xmlns="http://www.w3.org/2000/svg" xmlns:xlink="http://www.w3.org/1999/xlink" x="0px" y="0px"
	 width="2072.896px" height="465.601px" viewBox="13.614 -31.52 2072.896 465.601"
	 enable-background="new 13.614 -31.52 2072.896 465.601" xml:space="preserve">
<g>
	<g>
		<polygon fill="#659C35" points="156.047,178.401 147.42,191.589 105.026,170.496 118.196,146.516 		"/>
		<path fill="#88C057" d="M176.037,151.568c0.359-7.634-0.996-15.061-4.625-21.779c-27.817,12.726-24.347,28.819-24.347,28.819
			c-4.265-3.677-8.953-2.355-13.199,1.103l22.181,18.683l0,0l0,0l0,0l-8.626,13.195l0,0l0,0l-0.011-0.004l-25.967-12.92
			c-0.966,2.927-1.26,5.257-0.535,6.1c0,0-16.097-3.465-28.82,24.347c6.913,3.727,14.562,5.157,22.423,4.674
			c-13.991,18.604-23.36,39.191-17.107,60.526c49.602-26.754,42.55-56.533,42.55-56.533c27.337,22.709,54.112,10.713,58.064,8.805
			c1.909-3.953,13.905-30.727-8.804-58.064c0,0,22.601,14.229,49.36-35.377C216.269,127.667,194.674,137.515,176.037,151.568z"/>
		<g>
			<path fill="#E22F37" d="M234.142,141.445c-0.123-0.011-0.242-0.041-0.364-0.052c-24.608,39.639-44.568,27.13-44.568,27.13
				c22.709,27.338,10.713,54.111,8.804,58.063c-3.953,1.91-30.726,13.905-58.064-8.804c0,0,5.59,24.575-30.555,49.139
				c-0.004,0.128-0.004,0.263-0.012,0.396c0.104-0.073,0.227-0.144,0.328-0.214c0.051,18.077,9.372,36.899,30.681,58.208
				c47.636,47.628,159.127,63.38,187.554,34.954c28.427-28.427,12.676-139.919-34.961-187.555
				c-21.706-21.706-40.834-30.967-59.22-30.674C233.893,141.85,234.019,141.634,234.142,141.445z"/>
		</g>
		<path fill="#661C0E" d="M147.247,293.486c0,0-12.705,14.398-0.423,17.363c12.281,2.964,23.716-3.388,21.598-10.587
			C166.304,293.062,151.788,286.549,147.247,293.486z"/>
		<path fill="#661C0E" d="M189.908,265.576c0,0-10.89-5.961-15.646,1.044c-4.756,7.005-6.405,16.464,0.725,17.555
			c7.128,1.09,4.011-6.47,14.816-7.867C200.606,274.911,197.439,267.885,189.908,265.576z"/>
		<path fill="#661C0E" d="M132.713,261.164c0,0,5.506,10.588-0.847,15.248c-6.353,4.657-1.887,11.664,8.162,8.161
			C150.076,281.069,135.448,234.254,132.713,261.164z"/>
		<path fill="#661C0E" d="M154.735,245.919c0,0,8.47-9.317,13.976-3.811c5.505,5.504-1.271,21.598-11.011,20.327
			S154.735,245.919,154.735,245.919z"/>
		<path fill="#661C0E" d="M204.232,297.92c0,0,4.126,15.355-4.864,15.027c-8.989-0.328-15.998,2.444-14.399-14.399
			C186.567,281.705,200.721,282.796,204.232,297.92z"/>
		<path fill="#661C0E" d="M169.43,335.405c0,0,0.814-7.91,17.411-7.407c16.597,0.505,3.893,18.29-0.343,17.444
			C182.263,344.595,169.302,344.003,169.43,335.405z"/>
		<path fill="#661C0E" d="M217.302,328.189c0,0-11.458-5.481-9.697,9.696c1.762,15.18,6.119,2.019,9.173,15.391
			c3.053,13.37,18.724,3.299,11.797-8.409C221.648,333.16,217.302,328.189,217.302,328.189z"/>
		<path fill="#661C0E" d="M226.73,283.188c-12.07,1.059-10.662,13.054-5.332,18.385c5.332,5.332,9.99,19.308,13.378,13.377
			c3.388-5.928,12.398-18.093,1.964-21.752C226.307,289.539,238.8,282.129,226.73,283.188z"/>
		<path fill="#661C0E" d="M206.372,242.111c0,0,0.226-10.841,6.692-6.692c6.467,4.149,9.178,3.705,4.858,11.55
			c-4.32,7.844,1.472,22.107-13.706,13.706C189.04,252.272,208.458,251.431,206.372,242.111z"/>
		<path fill="#661C0E" d="M222.61,201.991c0,0,1.156-11.55,12.59-6.045c11.434,5.506-2.205,9.653,1.227,19.861
			c3.433,10.209-12.449,9.574-15.943,4.386C216.99,215.003,222.302,213.54,222.61,201.991z"/>
		<path fill="#661C0E" d="M217.123,171.092c0,0-10.72,1.139-6.062,11.725c4.658,10.588,10.234-5.858,19.516-6.741
			c9.283-0.881,11.775-11.094,4.388-15.093C227.578,156.984,223.915,166.596,217.123,171.092z"/>
		<path fill="#661C0E" d="M265.262,159.83c0,0-9.695-7.889-13.313,9.667c-3.62,17.555,8.138,9.358,11.247,15.567
			c3.109,6.208,15.114,2.324,10.922-6.95C269.928,168.843,269.391,161.556,265.262,159.83z"/>
		<path fill="#661C0E" d="M262.305,201.028c0,0-10.63,0.54-7.857,12.975c2.774,12.435,12.251-1.803,21.489-5.271
			C285.173,205.264,288.739,190.095,262.305,201.028z"/>
		<path fill="#661C0E" d="M243.445,246.964c-4.397,4.55-1.045,7.848-8.245,12.506c-7.2,4.659-2.311,9.979,2.444,10.496
			c4.755,0.516,16.097-23.293,23.025-20.6C267.598,252.06,268.417,221.117,243.445,246.964z"/>
		<path fill="#661C0E" d="M283.399,239.91c0,0-13.049-10.083-3.309-17.283c9.741-7.199,31.223-10.549,28.07-3.721
			C302.894,230.316,290.791,247.501,283.399,239.91z"/>
		<path fill="#661C0E" d="M275.056,262.906c0,0,16.258,10.753,5.792,17.782c-2.753,1.848-5.628-7.029-17.274-3.431
			C251.928,280.858,263.881,258.507,275.056,262.906z"/>
		<path fill="#661C0E" d="M311.061,261.006c0,0-5.239-5.71,0.881-13.023c6.121-7.313-9.44-9.293-9.98,0.195
			c-0.541,9.488-13.439,9.566-11.781,17.847C291.839,274.307,312.411,270.415,311.061,261.006z"/>
		<path fill="#661C0E" d="M258.961,293.729c-5.583,4.665-9.997,7.457-7.245,14.021c2.753,6.564,13.174,10.543,14.846,4.212
			c1.67-6.329,13.063-13.699,6.202-19.013C265.904,287.634,261.778,291.375,258.961,293.729z"/>
		<path fill="#661C0E" d="M240.914,334.638c-2.197,7.257-3.629,2.367-0.543,12.408c3.088,10.042,10.075,14.488,13.251,2.843
			c3.176-11.646,0.676-14.569,6.056-18.932C265.057,326.596,245.146,320.659,240.914,334.638z"/>
		<path fill="#661C0E" d="M295.024,294.863c0,0,13.1-15.569,15.071-7.799c1.971,7.77-12.005,13.697-12.216,18.568
			C297.667,310.502,278.829,311.407,295.024,294.863z"/>
		<path fill="#661C0E" d="M318.193,305.223c0,0,16.318-12.083,13.353,9.516c-2.964,21.599-5.081,18.633-11.01,15.668
			C314.606,327.442,309.523,308.585,318.193,305.223z"/>
		<path fill="#661C0E" d="M289.029,328.032c0,0-16.813-6.585-19.863,9.223c-3.05,15.811,4.753,2.677,9.427,6.808
			c4.674,4.132,10.324,5.259,12.051-1.551C292.373,335.701,299.263,329.174,289.029,328.032z"/>
		<path fill="#661C0E" d="M286.972,357.222c0,0,13.289-0.207,16.242-9.971c2.952-9.762,15.697,2.016,12.512,7.636
			c-3.184,5.621-18.179,12.439-25.066,10.852C283.772,364.152,279.437,358.733,286.972,357.222z"/>
		<path fill="#661C0E" d="M323.5,269.849c0,0-11.273,1.008-4.896,14.161c6.378,13.153,4.816,9.633,14.808,8.957
			c9.993-0.675-4.195-9.779-0.172-13.379C337.264,275.987,329.641,268.789,323.5,269.849z"/>
	</g>
	<g>
		<path fill="#E22F37" d="M525.811,294.146c0,19.343-11.548,36.953-34.644,46.48c-6.64,28.869-28.581,42.149-33.777,42.149
			c-3.753,0-6.64-2.31-6.64-5.773c0-2.599,1.443-4.908,4.042-6.063c8.949-3.753,17.61-12.991,22.229-25.694
			c-4.331,0.866-9.238,1.732-14.435,2.31c-5.197,0.577-10.682,0.866-16.745,0.866c-36.953,0-67.844-17.899-67.844-45.325
			c0-21.652,21.075-38.686,48.212-38.686c37.53,0,65.534,26.271,66.4,62.069c12.991-6.64,20.497-19.054,20.497-32.334
			c0-27.426-21.652-38.107-53.12-48.789c-25.982-8.95-51.677-17.899-51.677-45.903c0-21.652,19.632-43.305,57.739-43.305
			c6.929,0,13.28,1.155,18.766,2.598c8.083-6.64,18.765-10.682,30.891-10.682c3.753,0,6.64,2.599,6.64,6.352
			c0,3.176-3.176,5.196-6.929,5.196c-6.352,0-12.414,1.732-17.899,5.197c2.021,1.443,4.042,2.887,5.485,4.331
			c9.238,8.949,10.682,17.899,10.682,24.828c0,10.393-7.794,20.498-19.342,20.498c-12.703,0-23.673-10.682-23.673-26.271
			c0-6.64,2.021-14.146,5.485-19.343c-3.176-0.577-7.217-1.155-10.393-1.155c-29.736,0-44.459,16.456-44.459,31.757
			c0,17.61,16.167,24.828,42.727,34.355C491.744,243.625,525.811,255.75,525.811,294.146z M390.7,303.385
			c0,19.055,24.25,33.489,55.141,33.489c12.703,0,24.539-1.443,34.355-4.619c1.732-30.891-18.188-55.719-53.986-55.719
			C407.156,276.536,390.7,287.796,390.7,303.385z M487.991,172.317c-2.887,4.331-4.619,9.527-4.619,15.878
			c0,8.083,5.196,14.435,10.97,14.435c4.331,0,6.64-4.042,6.64-8.661S500.116,179.823,487.991,172.317z"/>
		<path fill="#E22F37" d="M577.774,345.823c-0.288,0-1.731-0.288-2.021-0.288c-14.435-2.31-21.363-14.146-21.363-36.376
			c0-13.857,1.731-30.024,7.217-51.966c-8.372,0-11.548,1.443-15.59,1.443c-2.021,0-4.041-1.731-4.041-4.907
			c0-8.083,12.125-8.372,22.518-8.661c2.311-9.527,5.774-22.807,8.95-34.354c0.866-2.599,3.176-4.331,5.773-4.619
			c3.753,0,6.641,2.31,6.641,5.773c0,1.155-0.289,2.599-0.577,3.176c-2.888,8.661-6.641,23.962-8.084,30.313
			c4.042,0,9.815,0.289,17.61,0.577c3.176,0.577,6.352,2.887,6.352,6.063c0,3.465-2.31,5.774-5.485,5.774
			c-5.485,0-15.301-0.578-20.786-0.866c-5.196,18.477-7.795,36.664-7.795,51.388c0,22.807,8.372,24.25,11.259,24.828
			c3.176,0,5.774,2.887,5.774,6.063C584.126,342.647,581.239,345.535,577.774,345.823z"/>
		<path fill="#E22F37" d="M619.922,339.761c-0.577,3.465-3.176,5.485-6.352,5.485c-3.464,0-5.773-2.887-5.773-6.352
			c0-2.021,8.084-49.367,8.084-58.894c0-12.703-2.599-17.61-6.352-21.364c-1.443-1.154-1.732-2.887-1.732-4.619
			c0-3.464,2.887-6.351,6.063-6.351c5.485,0,13.568,9.815,12.991,24.25c6.352-19.054,21.941-27.715,36.376-27.715
			c3.753,0,6.929,2.599,6.929,6.352c0,3.464-2.599,5.485-6.063,5.774c-30.024,1.731-35.799,36.953-42.438,73.906L619.922,339.761z"
			/>
		<path fill="#E22F37" d="M750.703,273.649c0,10.971-1.731,23.673-3.753,34.644c-1.154,7.506-2.887,17.322-2.887,23.096
			c0,1.732,0.289,2.887,0.577,3.753c0.578,1.155,1.155,2.021,1.155,3.465c0,3.175-3.176,6.063-6.64,6.063
			c-6.352,0-8.084-8.084-8.084-13.857c0-6.063,1.732-14.146,3.176-24.539c1.732-10.683,3.753-21.941,3.753-32.046
			c0-13.857-7.506-19.054-15.013-19.054c-21.94,0-38.396,33.489-38.396,59.76c0,10.683,4.908,18.188,12.414,18.188
			c7.795,0,13.569-6.929,16.456-14.724c0.866-2.31,3.176-3.753,5.485-3.753c3.753,0,6.063,2.887,6.063,6.352
			c0,4.907-9.238,24.25-30.024,24.25c-11.548,0-23.385-8.661-23.385-30.313c0-30.024,20.786-71.885,52.543-71.885
			C740.6,243.048,750.703,253.729,750.703,273.649z"/>
		<path fill="#E22F37" d="M894.473,243.914c8.372,0,8.372,14.435,8.372,17.899c0,26.85-19.343,81.99-47.924,81.99
			c-10.971,0-23.385-8.949-23.096-32.623c-7.218,19.343-20.497,32.912-35.221,32.912c-18.188,0-23.385-21.364-23.385-38.686
			c0-18.477,3.753-39.552,6.929-51.966c0.866-3.175,3.465-5.196,6.352-5.196c3.464,0,6.352,2.887,6.352,6.64
			c0,0.578,0,0.866-0.289,1.444c-2.887,11.836-6.352,31.756-6.352,49.078c0,16.455,4.042,26.56,11.26,26.56
			c16.166,0,35.221-35.51,38.396-79.103c0.288-3.464,2.598-6.063,5.484-6.063c3.754,0,6.641,2.887,6.641,6.64
			c0,0.289-0.289,4.619-0.866,9.815c-1.443,14.146-3.464,30.891-3.464,42.15c0,12.702,2.887,25.982,11.836,25.982
			c16.456,0,34.644-42.727,34.644-69.576c0-3.464-0.577-6.64-1.732-8.66c-0.288-0.866-0.577-1.732-0.577-2.599
			c0-2.31,1.732-4.908,4.042-5.774C892.74,244.202,893.606,243.914,894.473,243.914z"/>
		<path fill="#E22F37" d="M922.476,301.075c0-21.074,4.619-45.325,11.259-67.266c-4.041,0.577-9.526,0.866-13.857,0.866
			c-5.485,0-6.929-4.042-6.929-6.64c0-0.866,0.577-5.485,6.929-5.485c6.929,0,12.414-0.866,18.477-2.31
			c6.352-18.477,24.539-64.091,51.389-64.091c11.547,0,18.477,6.929,18.477,19.631s-9.238,24.25-15.302,30.313
			c-11.836,12.125-28.292,19.631-44.459,23.961c-7.506,20.787-13.28,49.368-13.28,71.019c0,20.786,5.774,34.355,19.632,34.355
			c14.146,0,32.334-26.849,32.334-54.853c0-13.857-4.908-23.962-15.013-23.962c-6.063,0-9.815,1.732-13.279,5.485
			c-1.443,1.443-3.176,2.021-4.908,2.021c-3.465,0-6.352-2.887-6.352-6.351c0-4.042,7.506-13.858,25.117-13.858
			c17.321,0,27.137,15.012,27.137,36.665c0,31.757-21.94,65.245-45.325,65.245C940.952,345.823,922.476,340.338,922.476,301.075z
			 M984.545,197.145c5.485-5.485,10.682-15.012,10.682-20.786c0-4.908-2.31-8.373-6.063-8.373
			c-11.259,0-24.539,19.632-36.664,48.501C964.336,212.734,976.462,205.517,984.545,197.145z"/>
		<path fill="#E22F37" d="M1074.616,267.01c0-5.774-4.042-9.816-11.548-9.816c-14.436,0-34.933,18.477-34.933,49.367
			c0,9.816,3.176,27.427,23.962,27.427c7.506,0,15.301-3.465,20.209-9.527c1.154-1.443,2.598-2.31,4.619-2.31
			c3.464,0,5.773,2.887,5.773,6.64c0,5.485-13.857,17.033-31.468,17.033c-21.94,0-36.087-14.724-36.087-39.263
			c0-36.375,25.405-61.781,48.212-61.781c17.322,0,24.251,10.682,24.251,22.23c0,22.807-23.962,34.065-40.995,34.065
			c-3.464,0-6.352-2.31-6.352-6.063c0-3.176,2.599-6.063,6.352-6.351C1060.181,288.373,1074.616,280.001,1074.616,267.01z"/>
		<path fill="#E22F37" d="M1114.741,339.761c-0.577,3.465-3.176,5.485-6.351,5.485c-3.465,0-5.774-2.887-5.774-6.352
			c0-2.021,8.083-49.367,8.083-58.894c0-12.703-2.598-17.61-6.351-21.364c-1.443-1.154-1.732-2.887-1.732-4.619
			c0-3.464,2.887-6.351,6.063-6.351c5.485,0,13.569,9.815,12.991,24.25c6.352-19.054,21.941-27.715,36.376-27.715
			c3.753,0,6.929,2.599,6.929,6.352c0,3.464-2.599,5.485-6.063,5.774c-30.024,1.731-35.799,36.953-42.438,73.906L1114.741,339.761z"
			/>
		<path fill="#E22F37" d="M1186.048,339.761c-0.577,3.465-3.176,5.485-6.351,5.485c-3.465,0-5.774-2.887-5.774-6.352
			c0-2.021,8.083-49.367,8.083-58.894c0-12.703-2.598-17.61-6.351-21.364c-1.443-1.154-1.732-2.887-1.732-4.619
			c0-3.464,2.887-6.351,6.063-6.351c5.485,0,13.569,9.815,12.991,24.25c6.352-19.054,21.941-27.715,36.376-27.715
			c3.753,0,6.929,2.599,6.929,6.352c0,3.464-2.599,5.485-6.063,5.774c-30.024,1.731-35.799,36.953-42.438,73.906L1186.048,339.761z"
			/>
		<path fill="#E22F37" d="M1261.687,253.152c-2.31,12.414-6.352,32.911-6.352,51.388c0,8.372,1.155,26.849,10.971,26.849
			c17.61,0,39.263-45.037,38.974-79.969c0-3.464,3.176-6.063,6.641-6.063c3.464,0,5.773,2.887,5.773,6.352
			c0,12.991-2.021,41.283-2.887,54.852c-0.866,12.125-2.887,35.799-10.394,60.627c9.527,5.484,16.745,15.012,16.745,25.982
			c0,3.464-2.888,6.352-6.352,6.352c-3.465,0-6.063-2.888-6.063-6.352c0-8.084-6.352-12.414-8.95-13.569
			c-12.702,32.623-40.994,53.409-66.688,53.409c-14.146,0-26.849-6.929-26.849-24.539c0-29.736,37.241-48.501,67.555-48.501
			c6.64,0,13.28,0.866,18.477,2.599c4.619-14.436,8.95-37.819,10.682-55.43c-7.217,20.208-22.519,36.953-36.664,36.953
			c-17.899,0-23.962-19.343-23.962-39.552c0-19.92,4.33-41.861,6.352-52.543c0.577-2.021,1.443-6.64,6.929-6.64
			c3.464,0,6.351,2.887,6.351,6.64L1261.687,253.152z M1288.824,373.538c-4.042-1.154-10.104-1.731-15.013-1.731
			c-23.962,0-54.563,15.301-54.563,35.798c0,9.238,7.795,13.568,15.59,13.568C1254.758,421.173,1277.564,402.408,1288.824,373.538z"
			/>
		<path fill="#E22F37" d="M1464.062,181.267c0-2.598,0.288-5.196,0.577-7.506c-40.417,7.506-65.245,45.614-65.245,86.32
			c0,41.283,24.25,74.483,68.132,74.483c25.694,0,45.614-9.527,56.873-25.982c1.155-1.732,3.465-2.888,5.485-2.888
			c3.176,0,6.063,2.888,6.063,6.641c0,4.619-19.921,34.644-68.422,34.644c-51.099,0-80.835-37.531-80.835-86.897
			c0-50.522,32.912-94.115,81.413-99.023c7.506-18.188,23.961-28.292,41.86-28.292c6.063,0,16.456,0.577,16.456,7.795
			c0,3.753-2.887,5.774-6.352,5.774c-1.443,0-8.372-1.155-10.104-1.155c-10.393,0-20.786,4.042-27.138,15.589
			c36.953,2.021,57.74,26.271,57.74,51.099c0,16.167-10.394,30.024-30.025,30.024c-10.104,0-20.497-4.908-28.869-13.28
			C1470.124,217.354,1464.062,200.032,1464.062,181.267z M1527.286,211.868c0-19.631-17.899-38.396-49.367-39.263
			c-0.577,2.599-0.866,5.485-0.866,8.661c0,31.468,19.92,48.212,33.488,48.212C1525.843,229.479,1527.286,217.065,1527.286,211.868z
			"/>
		<path fill="#E22F37" d="M1565.682,338.895c-1.443-8.66-2.021-14.146-2.021-23.673c0-31.757,6.64-68.71,9.526-80.835
			c-2.021,0.289-5.196,0.289-7.794,0.289c-5.197,0-11.26,0.289-11.26-6.351c0-3.464,2.888-6.352,6.063-5.774h5.485
			c3.753,0,7.795-0.289,10.971-0.866c8.949-28.581,26.849-61.204,49.078-61.204c12.414,0,19.632,7.506,19.632,19.343
			c0,23.384-29.736,45.037-58.605,52.254c-2.599,10.393-7.218,30.891-10.682,58.605c8.661-28.87,26.271-46.48,41.86-46.48
			c22.808,0,23.096,30.313,23.096,42.728c0,23.962-6.063,47.635-6.929,50.232c-0.866,2.888-3.175,4.908-6.063,4.908
			c-3.753,0-6.64-3.176-6.64-6.352c0-0.577,0.289-1.154,0.289-1.731c2.309-8.95,6.351-28.581,6.351-47.058
			c0-21.941-3.753-29.447-10.97-29.447c-18.766,0-43.305,48.212-39.264,80.258c0.578,3.464-2.309,6.352-6.063,6.352
			C1568.568,344.092,1566.26,341.781,1565.682,338.895z M1590.799,218.508c22.518-7.794,41.86-24.539,41.86-38.685
			c0-4.331-2.021-7.506-7.217-7.506C1615.049,172.317,1599.748,191.371,1590.799,218.508z"/>
		<path fill="#E22F37" d="M1722.731,267.01c0-5.774-4.042-9.816-11.548-9.816c-14.436,0-34.933,18.477-34.933,49.367
			c0,9.816,3.176,27.427,23.962,27.427c7.506,0,15.301-3.465,20.209-9.527c1.154-1.443,2.598-2.31,4.619-2.31
			c3.464,0,5.773,2.887,5.773,6.64c0,5.485-13.857,17.033-31.468,17.033c-21.94,0-36.087-14.724-36.087-39.263
			c0-36.375,25.405-61.781,48.212-61.781c17.322,0,24.251,10.682,24.251,22.23c0,22.807-23.962,34.065-40.995,34.065
			c-3.464,0-6.352-2.31-6.352-6.063c0-3.176,2.599-6.063,6.352-6.351C1708.296,288.373,1722.731,280.001,1722.731,267.01z"/>
		<path fill="#E22F37" d="M1808.76,267.01c0-5.774-4.042-9.816-11.548-9.816c-14.436,0-34.933,18.477-34.933,49.367
			c0,9.816,3.176,27.427,23.962,27.427c7.506,0,15.301-3.465,20.209-9.527c1.154-1.443,2.598-2.31,4.619-2.31
			c3.464,0,5.773,2.887,5.773,6.64c0,5.485-13.857,17.033-31.468,17.033c-21.941,0-36.087-14.724-36.087-39.263
			c0-36.375,25.405-61.781,48.212-61.781c17.322,0,24.251,10.682,24.251,22.23c0,22.807-23.962,34.065-40.995,34.065
			c-3.465,0-6.352-2.31-6.352-6.063c0-3.176,2.599-6.063,6.352-6.351C1794.324,288.373,1808.76,280.001,1808.76,267.01z"/>
		<path fill="#E22F37" d="M1867.362,345.823c-0.288,0-1.731-0.288-2.021-0.288c-14.435-2.31-21.363-14.146-21.363-36.376
			c0-13.857,1.731-30.024,7.217-51.966c-8.372,0-11.548,1.443-15.59,1.443c-2.021,0-4.041-1.731-4.041-4.907
			c0-8.083,12.125-8.372,22.518-8.661c2.311-9.527,5.774-22.807,8.95-34.354c0.866-2.599,3.176-4.331,5.773-4.619
			c3.753,0,6.641,2.31,6.641,5.773c0,1.155-0.289,2.599-0.577,3.176c-2.888,8.661-6.641,23.962-8.084,30.313
			c4.042,0,9.815,0.289,17.61,0.577c3.176,0.577,6.352,2.887,6.352,6.063c0,3.465-2.31,5.774-5.485,5.774
			c-5.485,0-15.301-0.578-20.786-0.866c-5.196,18.477-7.795,36.664-7.795,51.388c0,22.807,8.372,24.25,11.259,24.828
			c3.176,0,5.774,2.887,5.774,6.063C1873.714,342.647,1870.827,345.535,1867.362,345.823z"/>
		<path fill="#E22F37" d="M1974.754,273.649c0,10.971-1.731,23.673-3.753,34.644c-1.154,7.506-2.887,17.322-2.887,23.096
			c0,1.732,0.289,2.887,0.577,3.753c0.578,1.155,1.155,2.021,1.155,3.465c0,3.175-3.176,6.063-6.64,6.063
			c-6.352,0-8.084-8.084-8.084-13.857c0-6.063,1.732-14.146,3.176-24.539c1.732-10.683,3.753-21.941,3.753-32.046
			c0-13.857-7.506-19.054-15.013-19.054c-21.94,0-38.396,33.489-38.396,59.76c0,10.683,4.908,18.188,12.414,18.188
			c7.795,0,13.569-6.929,16.456-14.724c0.866-2.31,3.176-3.753,5.485-3.753c3.753,0,6.063,2.887,6.063,6.352
			c0,4.907-9.238,24.25-30.024,24.25c-11.548,0-23.385-8.661-23.385-30.313c0-30.024,20.786-71.885,52.543-71.885
			C1964.65,243.048,1974.754,253.729,1974.754,273.649z"/>
		<path fill="#E22F37" d="M2002.468,338.895c-1.443-8.66-2.021-14.146-2.021-23.673c0-31.757,6.64-68.71,9.527-80.835
			c-2.021,0.289-5.197,0.289-7.795,0.289c-5.197,0-11.26,0.289-11.26-6.351c0-3.464,2.887-6.352,6.063-5.774h5.485
			c3.753,0,7.795-0.289,10.971-0.866c8.949-28.581,26.849-61.204,49.078-61.204c12.414,0,19.632,7.506,19.632,19.343
			c0,23.384-29.736,45.037-58.605,52.254c-2.599,10.393-7.218,30.891-10.682,58.605c8.66-28.87,26.271-46.48,41.86-46.48
			c22.808,0,23.096,30.313,23.096,42.728c0,23.962-6.063,47.635-6.929,50.232c-0.865,2.888-3.176,4.908-6.063,4.908
			c-3.753,0-6.64-3.176-6.64-6.352c0-0.577,0.288-1.154,0.288-1.731c2.311-8.95,6.352-28.581,6.352-47.058
			c0-21.941-3.753-29.447-10.971-29.447c-18.765,0-43.304,48.212-39.262,80.258c0.577,3.464-2.311,6.352-6.063,6.352
			C2005.355,344.092,2003.045,341.781,2002.468,338.895z M2027.585,218.508c22.518-7.794,41.86-24.539,41.86-38.685
			c0-4.331-2.021-7.506-7.217-7.506C2051.835,172.317,2036.534,191.371,2027.585,218.508z"/>
	</g>
</g>
<g>
	<path fill="#661C0E" d="M124.481,74.525c0,13.383-7.99,25.568-23.97,32.16c-4.594,19.976-19.775,29.164-23.371,29.164
		c-2.597,0-4.594-1.598-4.594-3.995c0-1.798,0.999-3.396,2.796-4.195c6.192-2.597,12.185-8.989,15.381-17.778
		c-2.996,0.599-6.392,1.198-9.987,1.598c-3.596,0.4-7.391,0.6-11.586,0.6c-25.568,0-46.942-12.385-46.942-31.361
		c0-14.981,14.582-26.767,33.359-26.767c25.968,0,45.344,18.177,45.943,42.947c8.989-4.594,14.183-13.184,14.183-22.373
		c0-18.977-14.981-26.367-36.754-33.758C60.959,34.575,43.182,28.383,43.182,9.006c0-14.981,13.583-29.963,39.951-29.963
		c4.794,0,9.188,0.799,12.984,1.798c5.593-4.594,12.984-7.391,21.374-7.391c2.597,0,4.594,1.798,4.594,4.395
		c0,2.197-2.197,3.595-4.794,3.595c-4.395,0-8.589,1.199-12.385,3.596c1.398,0.999,2.796,1.998,3.795,2.997
		c6.392,6.192,7.391,12.384,7.391,17.179c0,7.191-5.393,14.182-13.383,14.182c-8.789,0-16.38-7.391-16.38-18.177
		c0-4.594,1.398-9.788,3.795-13.384c-2.197-0.399-4.994-0.799-7.191-0.799c-20.575,0-30.762,11.386-30.762,21.973
		c0,12.185,11.186,17.179,29.563,23.771C100.91,39.569,124.481,47.958,124.481,74.525z M30.997,80.917
		c0,13.184,16.779,23.171,38.153,23.171c8.789,0,16.979-0.999,23.771-3.196C94.119,79.52,80.335,62.34,55.566,62.34
		C42.383,62.34,30.997,70.131,30.997,80.917z M98.313-9.77c-1.998,2.996-3.196,6.592-3.196,10.986c0,5.593,3.596,9.987,7.591,9.987
		c2.996,0,4.594-2.796,4.594-5.992C107.302,2.015,106.703-4.577,98.313-9.77z"/>
	<path fill="#661C0E" d="M160.433,110.281c-0.2,0-1.199-0.2-1.398-0.2c-9.988-1.598-14.782-9.788-14.782-25.169
		c0-9.588,1.199-20.774,4.994-35.956c-5.792,0-7.99,0.999-10.787,0.999c-1.398,0-2.796-1.199-2.796-3.396
		c0-5.593,8.39-5.793,15.581-5.993c1.598-6.592,3.995-15.78,6.192-23.771c0.6-1.798,2.197-2.996,3.995-3.196
		c2.597,0,4.594,1.598,4.594,3.995c0,0.799-0.2,1.798-0.399,2.197c-1.998,5.993-4.594,16.58-5.593,20.974
		c2.797,0,6.792,0.2,12.185,0.4c2.197,0.399,4.395,1.997,4.395,4.194c0,2.397-1.598,3.995-3.795,3.995
		c-3.795,0-10.586-0.399-14.382-0.599c-3.596,12.784-5.394,25.369-5.394,35.556c0,15.78,5.793,16.779,7.791,17.179
		c2.197,0,3.995,1.998,3.995,4.195C164.828,108.084,162.83,110.082,160.433,110.281z"/>
	<path fill="#661C0E" d="M237.136,65.936c0,21.374-12.584,44.345-32.959,44.345c-13.783,0-22.972-12.185-22.972-30.762
		c0-5.593,0.799-10.787,2.796-16.18c0.599-1.798,2.397-3.196,4.195-3.196c2.397,0,4.195,2.197,4.195,4.395
		c0,0.799-0.2,1.398-0.399,1.998c-1.199,2.997-1.798,8.589-1.798,12.784c0,10.387,4.195,22.572,14.382,22.572
		c14.382,0,23.571-18.977,23.571-35.956c0-7.99-3.196-18.777-12.784-18.777c-7.591,0-10.188,6.392-10.188,11.187
		c0,7.99,5.993,7.99,9.388,7.99c2.597,0,4.595,1.998,4.595,4.395c0,1.199-0.4,4.395-5.394,4.395
		c-11.585,0-17.578-7.59-17.578-16.779c0-9.588,6.792-19.576,19.576-19.576C228.946,38.77,237.136,49.956,237.136,65.936z"/>
	<path fill="#661C0E" d="M257.707,106.086c-0.4,2.397-2.197,3.795-4.395,3.795c-2.397,0-3.995-1.998-3.995-4.395
		c0-1.398,5.593-34.158,5.593-40.75c0-8.79-1.797-12.185-4.395-14.782c-0.999-0.799-1.198-1.998-1.198-3.196
		c0-2.397,1.998-4.395,4.195-4.395c3.795,0,9.388,6.792,8.989,16.779c4.395-13.184,15.181-19.176,25.169-19.176
		c2.597,0,4.794,1.798,4.794,4.395c0,2.397-1.798,3.795-4.195,3.995c-20.774,1.198-24.77,25.568-29.364,51.137L257.707,106.086z"/>
	<path fill="#661C0E" d="M314.435,46.36c0,0.2,0,0.599-0.2,0.999c-3.596,14.382-7.391,40.35-8.589,59.327
		c-0.2,2.397-1.998,4.195-4.395,4.195c-2.597,0-4.594-1.998-4.594-4.594s2.996-37.354,8.989-61.125
		c0.399-2.397,2.996-3.795,5.393-3.196C313.037,42.565,314.435,44.363,314.435,46.36z M323.624,15.998l-7.99,5.593l12.185,7.791
		l-14.782-2.397l-5.593,10.986l0.2-11.585l-9.988-0.799l9.788-5.593l-0.999-9.189l5.993,6.592L323.624,15.998z"/>
	<path fill="#661C0E" d="M368.765,55.749c0-3.995-2.797-6.792-7.99-6.792c-9.988,0-24.17,12.784-24.17,34.158
		c0,6.792,2.198,18.977,16.58,18.977c5.194,0,10.587-2.397,13.983-6.592c0.799-0.999,1.798-1.598,3.196-1.598
		c2.397,0,3.995,1.998,3.995,4.594c0,3.795-9.588,11.786-21.773,11.786c-15.181,0-24.969-10.188-24.969-27.167
		c0-25.169,17.579-42.747,33.359-42.747c11.985,0,16.779,7.391,16.779,15.381c0,15.781-16.58,23.571-28.365,23.571
		c-2.397,0-4.395-1.598-4.395-4.195c0-2.197,1.798-4.195,4.395-4.395C358.777,70.53,368.765,64.738,368.765,55.749z"/>
	<path fill="#661C0E" d="M405.316,85.312c0,3.396-2.797,3.995-3.995,3.795c-1.199-0.2-1.798-0.599-3.196-0.599
		c-3.795,0-4.794,2.996-4.794,5.792c0,4.794,5.793,9.588,12.984,9.588c7.191,0,14.782-4.195,14.782-13.184
		c0-4.794-2.397-10.387-11.386-15.181c-6.392-3.396-14.582-8.789-14.582-18.777c0-8.19,6.592-16.779,18.977-16.779
		c11.985,0,16.58,8.589,16.58,11.985c0,2.597-1.998,4.594-4.594,4.594c-1.199,0-3.196-0.999-3.596-2.597
		c-0.599-1.998-3.396-6.393-8.589-6.393c-6.392,0-9.988,3.995-9.988,9.189c0,3.795,1.798,6.192,9.788,10.986
		c9.788,5.793,16.379,11.585,16.379,21.773c0,12.385-8.789,21.573-23.97,21.573c-11.386,0-21.773-6.592-21.773-16.579
		c0-8.39,6.192-14.382,13.783-14.382C401.721,80.119,405.316,81.317,405.316,85.312z"/>
	<path fill="#661C0E" d="M481.218,79.319c0-14.582,3.196-31.361,7.79-46.542c-2.796,0.399-6.592,0.599-9.588,0.599
		c-3.795,0-4.794-2.796-4.794-4.594c0-0.6,0.399-3.795,4.794-3.795c4.794,0,8.589-0.599,12.784-1.598
		c4.395-12.784,16.979-44.345,35.556-44.345c7.99,0,12.784,4.794,12.784,13.583s-6.392,16.779-10.587,20.974
		c-8.189,8.389-19.575,13.583-30.762,16.579c-5.193,14.382-9.188,34.158-9.188,49.139c0,14.382,3.995,23.771,13.583,23.771
		c9.788,0,22.372-18.577,22.372-37.953c0-9.588-3.396-16.58-10.387-16.58c-4.195,0-6.792,1.199-9.188,3.795
		c-0.999,0.999-2.197,1.398-3.396,1.398c-2.396,0-4.394-1.998-4.394-4.395c0-2.796,5.194-9.588,17.378-9.588
		c11.985,0,18.776,10.387,18.776,25.369c0,21.973-15.181,45.144-31.36,45.144C494.002,110.281,481.218,106.486,481.218,79.319z
		 M524.164,7.409c3.796-3.795,7.392-10.387,7.392-14.382c0-3.396-1.599-5.793-4.195-5.793c-7.79,0-16.979,13.583-25.368,33.559
		C510.182,18.195,518.571,13.201,524.164,7.409z"/>
	<path fill="#661C0E" d="M559.718,46.161c-1.599,8.589-4.396,22.772-4.396,35.556c0,5.792,0.8,18.577,7.591,18.577
		c12.186,0,27.167-31.161,26.967-55.332c0-2.397,2.197-4.195,4.595-4.195c2.396,0,3.995,1.998,3.995,4.395
		c0,8.989-1.398,28.565-1.998,37.953c-0.599,8.39-1.997,24.77-7.191,41.948c6.593,3.795,11.586,10.387,11.586,17.978
		c0,2.397-1.997,4.395-4.395,4.395c-2.396,0-4.194-1.998-4.194-4.395c0-5.593-4.395-8.589-6.192-9.388
		c-8.789,22.572-28.365,36.954-46.144,36.954c-9.787,0-18.576-4.794-18.576-16.979c0-20.574,25.768-33.558,46.741-33.558
		c4.595,0,9.189,0.599,12.784,1.797c3.196-9.987,6.192-26.167,7.392-38.353c-4.994,13.983-15.581,25.568-25.369,25.568
		c-12.385,0-16.579-13.383-16.579-27.366c0-13.783,2.996-28.964,4.395-36.355c0.399-1.398,0.999-4.594,4.794-4.594
		c2.397,0,4.395,1.998,4.395,4.594L559.718,46.161z M578.494,129.458c-2.797-0.799-6.991-1.199-10.388-1.199
		c-16.579,0-37.753,10.587-37.753,24.77c0,6.392,5.394,9.388,10.787,9.388C554.923,162.417,570.704,149.433,578.494,129.458z"/>
</g>
</svg>
